<?xml version="1.0" encoding="utf-8"?>
<!-- Generator: Adobe Illustrator 21.0.1, SVG Export Plug-In . SVG Version: 6.00 Build 0)  -->
<svg version="1.1" id="Layer_1" xmlns="http://www.w3.org/2000/svg" xmlns:xlink="http://www.w3.org/1999/xlink" x="0px" y="0px"
	 viewBox="0 0 300 300" style="enable-background:new 0 0 300 300;" xml:space="preserve">
<style type="text/css">
	.st0{fill:#FFFFFF;}
</style>
<g>
	<g>
		<path class="st0" d="M128.5,158.8l-18.2,18.2c-1,1-1,2.6,0,3.6c1,1,2.6,1,3.6,0l24.1-24.1L128.5,158.8z"/>
		<path class="st0" d="M120.8,191.8c1.7,1.7,5,1.6,8.2,0.3l1.3-2.8l4.5-18.5l-12.2,12.2C119.7,185.8,118.9,189.8,120.8,191.8z"/>
		<path class="st0" d="M26.8,87.1L58.9,55c2.8-2.8,7.4-2.9,10.3-0.2L28.6,95.4c-1,1-1,2.6,0,3.6c1,1,2.6,1,3.6,0l40.7-40.7l3.9,3.9
			L36,102.9c-1,1-1,2.6,0,3.6c1,1,2.6,1,3.6,0l40.7-40.7l3.9,3.9l-40.7,40.7c-1,1-1,2.6,0,3.6c1,1,2.6,1,3.6,0l40.7-40.7l3.9,3.9
			l-40.7,40.7c-1,1-1,2.6,0,3.6c1,1,2.6,1,3.6,0l40.7-40.7l3.9,3.9l-40.7,40.7c-1,1-1,2.6,0,3.6c1,1,2.6,1,3.6,0L102.6,88l3.9,3.9
			l-40.7,40.7c-1,1-1,2.6,0,3.6c1,1,2.6,1,3.6,0L110,95.4l3.9,3.9L73.2,140c-1,1-1,2.6,0,3.6c1,1,2.6,1,3.6,0l40.7-40.7l3.9,3.9
			l-40.7,40.7c-1,1-1,2.6,0,3.6c1,1,2.6,1,3.6,0l40.7-40.7l3.9,3.9l-34.9,34.9l13.3-6.2l25.2-25.2l3.9,3.9l-14.6,14.6l13.3-6.2
			l4.8-4.8l1.7,1.7l10.8-6.6l4.9-6.3L76.7,33.7c-2.9-2.9-7.8-2.9-10.7,0L19.7,80C16.8,83,16,87,17.9,88.9
			C19.9,90.9,23.9,90,26.8,87.1z"/>
		<path class="st0" d="M288.3,245.2C274.1,231,186.7,143.7,186.7,143.7c-1.6-1.7-3.9-3.9-6-6l-6.3,4.9l-7.1,11.7l-10.7,23
			c7.1-3,13.8-4.8,17.6-3.3c33,13.4,49.4,77.9,64.2,92.6C253.1,281.3,297.2,254.1,288.3,245.2z"/>
		<path class="st0" d="M102.8,169.6c-1,1-1,2.6,0,3.6c1,1,2.6,1,3.6,0l11.9-11.9l-9.4,2.3L102.8,169.6z"/>
		<path class="st0" d="M134.1,213.8l29-62.2l7.6-12.4l118.1-92.2l-1.4-2.9L194,100.7l56.7-93.3L247.7,6l-92.2,118.1l-12.4,7.6
			l-62.2,29c-10.1-12.3-27.6-16.9-42.6-9.9c-17.8,8.3-25.6,29.6-17.3,47.4c8.3,17.8,29.6,25.6,47.4,17.3
			c17.8-8.3,25.6-29.6,17.3-47.4l17.6-8.2l41.7-10.2l-10.2,41.7l-8.2,17.6c-17.8-8.3-39.1-0.6-47.4,17.3
			c-8.3,17.8-0.6,39.1,17.3,47.4c2,0.9,4,1.6,6.1,2.1l-4.7,20.5l11.2-2l2-17.3c13.6,0.2,26.7-7.4,32.8-20.5
			C151,241.3,146.4,223.8,134.1,213.8z M158.3,126.8c2.6-2.6,6.9-2.6,9.5,0c2.6,2.6,2.6,6.9,0,9.5c-2.6,2.6-6.9,2.6-9.5,0
			C155.7,133.7,155.7,129.5,158.3,126.8z M64.6,207.3c-13.3,6.2-29.3,0.4-35.5-12.9c-6.2-13.3-0.4-29.3,12.9-35.5
			c13.4-6.2,29.3-0.4,35.5,12.9C83.8,185.2,78,201.1,64.6,207.3z M135.8,252.6c-6.2,13.3-22.1,19.1-35.5,12.9
			c-13.4-6.2-19.1-22.1-12.9-35.5c6.2-13.4,22.2-19.2,35.5-12.9C136.2,223.3,142,239.3,135.8,252.6z"/>
	</g>
</g>
</svg>
