<?xml version="1.0" encoding="utf-8"?>
<!-- Generator: Adobe Illustrator 21.0.1, SVG Export Plug-In . SVG Version: 6.00 Build 0)  -->
<svg version="1.1" id="Layer_1" xmlns="http://www.w3.org/2000/svg" xmlns:xlink="http://www.w3.org/1999/xlink" x="0px" y="0px"
	 viewBox="0 0 300 300" style="enable-background:new 0 0 300 300;" xml:space="preserve">
<style type="text/css">
	.st0{fill:#FFFFFF;}
</style>
<g>
	<g>
		<path class="st0" d="M142.6,111.7c1.2-0.4,2.7-2.4,2.8-3.6c1.7-29.9-22.9-69.8-31.8-83.1c-7.2,2.9-14.1,7.5-20.6,14.5
			c0,0-12.8,8.6-17.4,50.5C99.6,121.1,129.5,116,142.6,111.7z"/>
		<path class="st0" d="M237.9,58.6L198.5,49c0,0-1.1-9.5-12.3-13.4c-8.1-2.9-36.2-19-63.7-13.3c10.4,15.9,33.6,55,31.8,86.3
			c-0.3,4.9-4.2,10-8.9,11.6c-4.5,1.5-12.6,3.6-22.5,3.6c-14.3,0-32.2-4.4-48.4-21.3c-0.3,5.4-0.5,11.2-0.5,17.5
			C73.8,152.3,32.7,183,32.7,183l-5.5,11.4c11.2,24.2,28.7,44.9,50.5,60c1-15.5,4.9-27.6,9.4-36.7c8.5-17.3,20.4-26.9,26.5-31
			c1.3-35.7,12.9-46.1,22.6-48.5c3-0.7,6.1-0.1,8.6,1.7c2.8,2.1,4.6,5.5,4.8,9.3c0.5,9.6,6.2,16.3,8.9,19c4.4,0.4,8.5,1.1,12.4,2
			l0.4-3.4l3-29.1c0.5-4.9,4.9-9,9.8-9.7c18.6-2.7,59.9-13.7,62.6-58.3C246.8,64.7,242.7,59.8,237.9,58.6z M176.6,69
			c-2.8,0-5-2.2-5-5s2.3-5,5-5c2.8,0,5,2.2,5,5C181.6,66.7,179.3,69,176.6,69z"/>
		<path class="st0" d="M198.5,201.9c-1.5-12.7-19.4-23.1-42.4-24.6c0,0-12.3-9.4-13.1-25.7c-0.1-2.5-2-4.9-4.4-4.3
			c-6.2,1.5-16.6,9.4-17.2,45.6c0,0-33.6,16.9-36,65.7c21.5,12.9,46.6,20.5,73.3,20.9l-0.3-7c-0.1-2.5,1.7-5.2,4-6l28.6-10.7
			c0,0,13.4,0.8,19-9.3c2.8-5.1,5.4-8.6,7.4-10.9c1.6-1.9,1.6-4.6-0.2-6.3C211.4,223.8,199.7,211.4,198.5,201.9z M181.6,214.2
			c-2.8,0-5-2.2-5-5c0-2.8,2.2-5,5-5c2.8,0,5,2.2,5,5C186.6,211.9,184.4,214.2,181.6,214.2z"/>
	</g>
</g>
</svg>
