<?xml version="1.0" encoding="utf-8"?>
<!-- Generator: Adobe Illustrator 21.0.1, SVG Export Plug-In . SVG Version: 6.00 Build 0)  -->
<svg version="1.1" id="Layer_1" xmlns="http://www.w3.org/2000/svg" xmlns:xlink="http://www.w3.org/1999/xlink" x="0px" y="0px"
	 viewBox="0 0 300 300" style="enable-background:new 0 0 300 300;" xml:space="preserve">
<style type="text/css">
	.st0{fill:none;}
	.st1{fill:#FFFFFF;}
</style>
<g>
	<circle class="st0" cx="105.3" cy="88.3" r="35"/>
	<path class="st1" d="M163.3,32.3L163.3,32.3C148.5,16.7,127.5,7,104.3,7C59.4,7,23,43.4,23,88.3c0,33.7,20.5,62.6,49.7,74.9v126
		c0,3.1,2.6,5.7,5.7,5.7h52.5c3.1,0,5.7-2.6,5.7-5.7v-45.9H111c-3.1,0-5.7-2.6-5.7-5.7V234c0-3.1,2.6-5.7,5.7-5.7h25.5v-14.2H111
		c-3.1,0-5.7-2.6-5.7-5.7v-3.8c0-3.1,2.6-5.7,5.7-5.7h25.5v-35.9c10.7-4.6,20.2-11.4,27.9-19.9v0l113-13.7V47.7L163.3,32.3z
		 M105.3,123.3c-19.3,0-35-15.7-35-35s15.7-35,35-35s35,15.7,35,35S124.6,123.3,105.3,123.3z M271.3,117.9c0,1.7-1.4,3.1-3.1,3.1
		s-3.1-1.4-3.1-3.1v-61c0-1.7,1.4-3.1,3.1-3.1s3.1,1.4,3.1,3.1V117.9z"/>
</g>
<circle class="st1" cx="105.3" cy="88.3" r="25.5"/>
</svg>
