<?xml version="1.0" encoding="utf-8"?>
<!-- Generator: Adobe Illustrator 21.0.1, SVG Export Plug-In . SVG Version: 6.00 Build 0)  -->
<svg version="1.1" id="Layer_1" xmlns="http://www.w3.org/2000/svg" xmlns:xlink="http://www.w3.org/1999/xlink" x="0px" y="0px"
	 viewBox="0 0 100 80" style="enable-background:new 0 0 100 80;" xml:space="preserve">
<style type="text/css">
	.st0{fill:#FFFFFF;}
</style>
<g>
	<g>
		<path class="st0" d="M55.9,42.9c0.8-0.1,1.5-1,1.5-1.5c0-0.6-0.8-1-1.8-1c-1,0-1.8,0.4-1.8,1c0,0.5,0.7,1.3,1.5,1.5
			C55.4,42.9,55.8,42.9,55.9,42.9z"/>
		<path class="st0" d="M58.2,43.5c0,0-0.1-0.1-0.2-0.1c-0.1,0-0.1,0-0.2,0.1c0,0-0.1,0.1-0.1,0.2c0,0.2-0.4,0.4-0.9,0.4
			c-0.6,0-0.9-0.2-0.9-0.4V43c-0.1,0-0.3,0.1-0.5,0v0.6c0,0.2-0.4,0.4-0.9,0.4c-0.6,0-0.9-0.2-0.9-0.4c0-0.1-0.1-0.3-0.3-0.3
			c-0.1,0-0.3,0.1-0.3,0.3c0,0.5,0.6,0.9,1.4,0.9c0.1,0,0.2,0,0.4,0c0.3,0,0.6-0.2,0.8-0.4c0.2,0.2,0.5,0.3,0.8,0.4
			c0.1,0,0.2,0,0.4,0c0.8,0,1.4-0.4,1.4-0.9C58.3,43.6,58.3,43.5,58.2,43.5z"/>
		<g>
			<path class="st0" d="M37.3,42.8c0-0.6,0-1.1,0.2-1.7c0.2-0.5,0.4-1,0.8-1.5c0.4-0.5,0.8-0.8,1.4-1.1c0.5-0.3,1.1-0.4,1.7-0.5
				c0.6,0,1.2,0,1.7,0.2c0.5,0.2,1,0.4,1.5,0.8c0.4,0.3,0.7,0.7,1,1.1l2-1.6c0,0,0,0,0,0c-0.4-0.6-0.8-1-1.4-1.5
				c-0.7-0.6-1.5-1-2.4-1.2c-0.2-0.1-0.5-0.1-0.7-0.2c-0.6-1.5-1-3.5-1-3.5c-0.6,0.5-1.3,2.8-1.5,3.4c-0.7,0.1-1.4,0.4-2.1,0.7
				c-0.8,0.4-1.5,1-2,1.6c-0.5-0.2-3-1-3.7-0.8c0,0,1.6,1.7,2.4,3.1c0,0.1,0,0.1-0.1,0.2c-0.3,0.8-0.4,1.7-0.3,2.6
				c0.1,0.7,0.2,1.4,0.5,2.1l2.5-0.8C37.5,43.9,37.3,43.3,37.3,42.8z"/>
			<path class="st0" d="M41.4,41.7l-1.2,0.6c-0.2,0.1-0.2,0.4,0,0.5l1.1,0.7l1.1,0.7c0.2,0.1,0.4,0,0.4-0.2l0.1-1.3l0.1-1.3
				c0-0.2-0.2-0.4-0.4-0.3L41.4,41.7z"/>
			<path class="st0" d="M47.6,38.6l-2,1.6c0,0,0,0.1,0.1,0.1c0.1,0.3,0.2,0.5,0.3,0.8l2.4-1.1c-0.1-0.3-0.3-0.6-0.4-1
				C47.9,38.9,47.8,38.8,47.6,38.6C47.6,38.6,47.6,38.6,47.6,38.6z"/>
			<path class="st0" d="M38.9,45.8c-0.1-0.1-0.3-0.2-0.4-0.4l-2.2,1.4c0.3,0.4,0.6,0.7,1,1c0.1,0.1,0.2,0.1,0.3,0.2l1.7-1.9
				C39.1,46,39,45.9,38.9,45.8z"/>
			<path class="st0" d="M37.8,44.5l-2.5,0.8c0.1,0.1,0.1,0.2,0.2,0.4c0.2,0.4,0.4,0.7,0.6,1l2.2-1.4C38.2,45.1,38,44.8,37.8,44.5z"
				/>
			<path class="st0" d="M58.7,39.4c-0.4-0.4-0.9-0.7-1.4-1c-0.5-0.2-1.1-0.4-1.7-0.4c-0.2,0-0.5,0-0.7,0.1c0.2,0,0.4,0,0.7,0
				c0.6,0,1.2,0.1,1.7,0.4C57.8,38.7,58.3,39,58.7,39.4c0.4,0.4,0.7,0.9,0.9,1.4c0.2,0.5,0.3,1.1,0.3,1.7c0,0.6-0.1,1.2-0.3,1.7
				c-0.2,0.5-0.6,1-1,1.4c-0.4,0.4-0.9,0.7-1.4,1c-0.3,0.1-0.7,0.2-1,0.3c0.4-0.1,0.7-0.2,1.1-0.3c0.5-0.2,1-0.6,1.4-1
				c0.4-0.4,0.7-0.9,1-1.4c0.2-0.5,0.3-1.1,0.3-1.7c0-0.6-0.1-1.2-0.3-1.7C59.4,40.2,59.1,39.8,58.7,39.4z"/>
			<path class="st0" d="M54.8,44.7c0.1,0.3,0.9,1.8,1.7,0c-0.3,0-0.6-0.2-0.8-0.4C55.4,44.5,55.2,44.7,54.8,44.7z"/>
			<path class="st0" d="M53.8,46.6c-0.5-0.2-1-0.6-1.4-1c-0.4-0.4-0.7-0.9-1-1.4c-0.2-0.5-0.3-1.1-0.3-1.7c0-0.6,0.1-1.2,0.3-1.7
				c0.2-0.5,0.6-1,1-1.4c0.4-0.4,0.9-0.7,1.4-1c0.3-0.1,0.7-0.2,1-0.3c-0.4,0.1-0.7,0.2-1.1,0.3c-0.5,0.2-1,0.6-1.4,1
				c-0.4,0.4-0.7,0.9-1,1.4c-0.2,0.5-0.3,1.1-0.3,1.7c0,0.6,0.1,1.2,0.3,1.7c0.2,0.5,0.6,1,1,1.4C52.8,46,53.3,46.4,53.8,46.6
				c0.5,0.2,1.1,0.4,1.7,0.4c0.2,0,0.5,0,0.7-0.1c-0.2,0-0.4,0-0.7,0C54.9,46.9,54.4,46.8,53.8,46.6z"/>
			<g>
				<path class="st0" d="M97.6,43.6c-0.3-0.5-0.7-1.1-1.2-1.8c-0.4-0.4-0.6-0.8-0.8-1.1c-0.2-0.3-0.3-0.6-0.3-0.8
					c0-0.4,0.1-0.9,0.4-1.5c0.1-0.2,0.2-0.4,0.3-0.6c0.1-0.2,0.1-0.4,0.1-0.5c0-0.2-0.1-0.3-0.3-0.4c-0.2-0.1-0.5-0.1-1-0.1
					c-1,0-1.6,0.4-2,1.1c-0.5,1.1-0.9,2-1.2,2.7c-0.3,0.7-0.6,1.2-0.9,1.7c-0.5,0.7-1.1,1.6-2.1,2.8l-0.3,0.4
					c-0.2,0.3-0.3,0.6-0.3,0.9c0,0.3,0.1,0.5,0.2,0.7c0.2,0.2,0.4,0.3,0.6,0.3c0.3,0,0.6-0.1,0.9-0.4c0.6-0.6,1.1-1.2,1.6-1.8
					c0.5-0.6,1-1.4,1.5-2.4c0.2,0.3,0.5,0.6,0.7,0.9c0.3,0.4,0.5,0.7,0.7,1.1c0.2,0.4,0.3,0.8,0.3,1.2c-0.1,0-0.4,0-0.7-0.1
					c-0.3,0-0.5-0.1-0.8-0.1c-0.6,0-1.1,0.2-1.4,0.5c-0.3,0.3-0.5,0.7-0.5,1.1c0,0.5,0.2,0.9,0.7,1.3c0.5,0.4,1.1,0.6,2,0.6
					c0.7,0,1.4-0.2,2-0.6c0.6-0.4,1-0.9,1.3-1.5c0.3-0.6,0.5-1.3,0.5-2C98,44.7,97.9,44.1,97.6,43.6z"/>
				<path class="st0" d="M62.2,40.3c-0.1-0.2-0.1-0.3-0.2-0.4c-0.4-0.8-0.9-1.6-1.5-2.2c-0.1-0.1-0.2-0.2-0.3-0.3
					c0.1-0.5,0.2-1,0.2-1.5c-0.2-0.1-0.3-0.2-0.4-0.3c-0.1-0.1-0.2-0.2-0.3-0.3c-0.1-0.1-0.2-0.2-0.3-0.3c0.1,0.1,0.2,0.2,0.3,0.3
					l0.3,0.3c0.1,0.1,0.3,0.2,0.4,0.4c0.8,0.6,1.5,1,1.5,1c-0.1-1.5-2.2-3.5-2.2-3.5c-0.1,0-0.2,0.1-0.3,0.1
					c-0.4,0.3-0.7,0.7-0.8,0.7c-0.5,0.6-1,1.3-1.2,1.7c-0.6-0.2-1.2-0.3-1.9-0.3c-0.8,0-1.6,0.1-2.3,0.4c-0.2-0.4-1.5-2.4-2.4-2.7
					c0,0-1.1,1.8-0.3,4.4c-0.6,0.6-1.1,1.3-1.4,2.1c-0.2,0.4-0.3,0.9-0.4,1.3c-0.1-0.3-0.1-0.6-0.2-0.9l-2.4,1.1
					c0.1,0.2,0.1,0.4,0.1,0.7c0,0.1,0,0.2,0,0.4l2.3-0.3c0,0.1,0,0.2,0,0.2l-2.3,0.3c0,0.4-0.1,0.7-0.2,1.1
					c-0.2,0.5-0.4,1.1-0.8,1.5c-0.4,0.5-0.8,0.8-1.4,1.1c-0.5,0.3-1.1,0.5-1.7,0.5c-0.6,0-1.2,0-1.7-0.2c-0.3-0.1-0.7-0.3-1-0.4
					l-1.7,1.9c0.6,0.4,1.2,0.7,1.9,0.9c0.9,0.2,1.7,0.3,2.7,0.3c0.9-0.1,1.8-0.3,2.7-0.8c0.8-0.4,1.6-1,2.1-1.7
					c0.6-0.7,1-1.5,1.3-2.3c0.1-0.3,0.2-0.5,0.2-0.8c0.1,0.6,0.2,1.1,0.5,1.6c0.4,0.8,0.9,1.6,1.5,2.2c0.6,0.6,1.4,1.1,2.2,1.5
					c0.9,0.4,1.8,0.5,2.7,0.5c1,0,1.9-0.2,2.7-0.5c0.9-0.4,1.6-0.8,2.2-1.5c0.5-0.5,0.9-1.1,1.3-1.7c0.1-0.2,0.2-0.3,0.2-0.5
					c0.4-0.8,0.6-1.7,0.6-2.7C62.6,41.7,62.4,41,62.2,40.3z M59.7,44.2c-0.2,0.5-0.6,1-1,1.4c-0.4,0.4-0.9,0.7-1.4,1
					c-0.3,0.1-0.7,0.3-1.1,0.3c-0.2,0-0.5,0.1-0.7,0.1c-0.6,0-1.2-0.1-1.7-0.4c-0.5-0.2-1-0.6-1.4-1c-0.4-0.4-0.7-0.9-1-1.4
					c-0.2-0.5-0.3-1.1-0.3-1.7c0-0.6,0.1-1.2,0.3-1.7c0.2-0.5,0.6-1,1-1.4c0.4-0.4,0.9-0.7,1.4-1c0.3-0.1,0.7-0.3,1.1-0.3
					c0.2,0,0.5-0.1,0.7-0.1c0.6,0,1.2,0.1,1.7,0.4c0.5,0.2,1,0.6,1.4,1c0.4,0.4,0.7,0.9,1,1.4c0.2,0.5,0.3,1.1,0.3,1.7
					C60,43.1,59.9,43.7,59.7,44.2z"/>
			</g>
		</g>
	</g>
	<path class="st0" d="M31.9,37.5c-0.6,0-1.2,0.2-1.9,0.6c-0.7,0.4-1.4,1-2.1,2c-0.7,0.9-1.3,2.1-1.9,3.6c0.1-0.7,0.2-1.4,0.3-1.9
		c0.1-0.5,0.2-1.1,0.4-1.8c0.3-1,0.4-1.6,0.4-1.8c0-0.2-0.1-0.4-0.2-0.5c-0.1-0.1-0.4-0.1-0.7-0.1c-0.6,0-1.1,0.1-1.5,0.3
		c-0.3,0.2-0.6,0.6-0.8,1.1c-0.5,1.7-0.8,3.5-0.9,5.3c-1,0.7-2.1,1.5-3.3,2.3l0.3-1.9c0.3-1.9,0.5-3.2,0.5-3.7
		c0.1-0.5,0-0.8-0.3-1.1c-0.2-0.2-0.6-0.4-0.9-0.4h-4.8c-0.4,0-0.8,0.1-1,0.4c-0.3,0.3-0.4,0.6-0.4,1.1c0,0.5,0.1,0.9,0.4,1.1
		c0.3,0.2,0.6,0.3,1.1,0.3h2.6l-0.4,3.1c-1.3,0.5-2.5,0.8-3.7,0.8c-2.1,0-3.7-0.6-4.8-1.7C7.3,43.6,6.8,42,6.8,40c0-2,0.3-3.7,1-5.1
		c0.6-1.4,1.5-2.5,2.6-3.2c1.1-0.7,2.2-1.1,3.5-1.1c1,0,1.7,0.2,2.2,0.6c0.4,0.4,0.7,0.9,0.7,1.7c0,0.3-0.1,0.6-0.2,1.1
		c-0.1,0.4-0.1,0.7-0.1,0.9c0,0.4,0.1,0.7,0.4,0.9c0.3,0.2,0.7,0.3,1.1,0.3c0.7,0,1.2-0.3,1.6-0.9c0.4-0.6,0.5-1.4,0.5-2.4
		c0-1.5-0.5-2.8-1.5-3.7c-1-0.9-2.5-1.4-4.5-1.4c-2.1,0-4,0.5-5.6,1.6c-1.7,1.1-3,2.6-3.9,4.5c-0.6,1.2-1,2.6-1.2,4.1
		C3.1,38.7,3,39.5,3,40.5c0,1.2,0.2,2.3,0.5,3.3c0.2,0.5,0.4,1,0.7,1.5c0,0,0,0,0,0c0.4,0.7,0.9,1.3,1.4,1.8c0.6,0.5,1.2,1,2,1.4
		c1.4,0.7,3.1,1.1,5,1.1c1.3,0,2.6-0.3,4-0.8l-0.1,0.5c-1.8,1.4-3.2,2.6-4.1,3.7c-1,1.1-1.6,2-2,2.8C10,56.4,9.8,57.2,9.8,58
		c0,0.9,0.3,1.6,0.8,2.1c0.5,0.5,1.3,0.8,2.1,0.8c1.6,0,3-1,4-3c1.1-2,1.9-4.8,2.6-8.3c1.6-1.1,2.9-2,3.8-2.6
		c0.1,0.6,0.2,1.1,0.3,1.5c0.3,0.7,0.7,1,1.4,1c0.5,0,0.9-0.1,1.2-0.4c0.2-0.3,0.5-0.8,0.7-1.6c0.3-1,0.6-2,1-3
		c0.4-0.9,0.8-1.7,1.2-2.3c0.4-0.6,0.8-0.9,1-0.9c0.2,0,0.3,0.1,0.3,0.4c0,0.1,0,0.2,0,0.3c0,0.1,0,0.2,0,0.4c0,0.1,0.1,0.1,0.1,0.1
		c0.2,0.1,0.3,0.3,0.5,0.4c0.6,0.2,1.2,0,1.6-0.4c0.2-0.1,0.3-0.3,0.5-0.5c0.1-0.1,0.1-0.2,0.2-0.3c0.1-0.1,0.1-0.2,0.1-0.3
		c0-0.2,0.1-0.5,0.1-0.7c0.2-0.9,0.2-1.4,0.2-1.6C33.6,38,33,37.5,31.9,37.5z M14.5,57c-0.5,1-1,1.5-1.5,1.5c-0.5,0-0.7-0.3-0.7-1
		c0-0.7,0.3-1.5,0.9-2.4c0.6-0.9,1.5-1.9,2.8-3C15.5,54.4,15,56,14.5,57z"/>
	<g>
		<path class="st0" d="M84.4,41.4c-0.2,0.4-0.4,0.9-0.6,1.3c0,0,0,0,0,0.1C84,42.3,84.2,41.9,84.4,41.4z"/>
		<path class="st0" d="M89.6,36.7c-0.6,0-1.2,0.2-1.9,0.6c-0.7,0.4-1.4,1-2.1,2c-0.5,0.6-0.9,1.3-1.3,2.2c-0.2,0.4-0.4,0.9-0.6,1.4
			c0,0,0,0,0-0.1c0,0.1-0.1,0.2-0.1,0.3c0.1-0.7,0.1-1.3,0.2-1.8c0.1-0.5,0.2-1.1,0.4-1.7c0.2-0.9,0.4-1.5,0.4-1.8
			c0-0.2-0.1-0.4-0.2-0.5c-0.1-0.1-0.4-0.1-0.7-0.1c-0.6,0-1.1,0.1-1.4,0.3c-0.3,0.2-0.6,0.6-0.7,1.1c-0.5,1.6-0.8,3.4-0.9,5.2
			c0,0.2,0,0.3,0,0.5c-0.5,0.6-0.9,1-1.2,1.3c-0.5,0.4-0.8,0.6-1.2,0.6c-0.5,0-0.7-0.3-0.7-1c0-0.5,0.2-1.4,0.5-2.8
			c0.4-1.7,0.5-2.8,0.5-3.5c0-1.1-0.5-1.6-1.6-1.6c-0.9,0-1.8,0.5-2.8,1.4c-1,0.9-1.9,2.4-2.7,4.4c0-0.3,0.1-0.7,0.3-1.3
			c0.3-1.4,0.5-2.3,0.5-2.9c0-0.5-0.1-0.9-0.4-1.2c-0.2-0.3-0.6-0.4-1.2-0.4c-0.6,0-1.2,0.2-1.8,0.7c-0.7,0.4-1.3,1.1-1.9,2
			c-0.6,0.9-1.1,2-1.6,3.3c0.1-0.7,0.1-1.3,0.2-1.8c0.1-0.5,0.2-1.1,0.4-1.7c0.2-0.9,0.4-1.5,0.4-1.8c0-0.2-0.1-0.4-0.2-0.5
			c-0.1-0.1-0.4-0.1-0.7-0.1c-0.6,0-1.1,0.1-1.4,0.3c-0.3,0.2-0.6,0.6-0.7,1.1c-0.2,0.6-0.3,1.2-0.5,1.8c0.3,0.7,0.4,1.5,0.4,2.2
			c0,1-0.2,1.8-0.6,2.7c-0.1,0.2-0.2,0.3-0.2,0.5c0.1,0.9,0.2,1.6,0.4,2.1c0.3,0.7,0.7,1,1.3,1c0.5,0,0.9-0.1,1.1-0.4
			c0.2-0.3,0.4-0.8,0.6-1.6c0.2-0.9,0.5-1.8,0.9-2.7c0.4-0.9,0.7-1.7,1.1-2.3c0.4-0.6,0.7-0.9,0.9-0.9c0.2,0,0.3,0.1,0.3,0.4
			c0,0.3-0.1,1-0.2,2.1c-0.2,1.2-0.2,2.1-0.2,2.7c0,0.7,0.1,1.4,0.4,1.9c0.3,0.5,0.7,0.8,1.2,0.8c0.5,0,0.9-0.1,1.1-0.4
			c0.2-0.3,0.4-0.8,0.6-1.6c0.2-1,0.6-2,1-2.9c0.4-0.9,0.8-1.6,1.2-2.2c0.4-0.6,0.7-0.8,0.9-0.8c0.2,0,0.3,0.1,0.3,0.4
			c0,0.4-0.1,1.1-0.3,2.1c-0.2,1.2-0.3,2-0.3,2.5c0,0.9,0.2,1.6,0.6,2.1c0.4,0.5,1.1,0.7,1.9,0.7c1,0,2-0.3,2.8-0.8
			c0.3-0.2,0.7-0.5,1-0.8c0.1,0.2,0.1,0.5,0.2,0.6c0.3,0.7,0.7,1,1.3,1c0,0,0,0,0,0h0c0.5,0,0.9-0.1,1.1-0.4
			c0.2-0.3,0.4-0.8,0.6-1.6c0.2-1,0.6-2,1-2.9c0.4-0.9,0.8-1.6,1.2-2.2c0.1-0.2,0.3-0.3,0.4-0.5c0.3-0.4,0.6-0.6,0.8-0.6
			c0.2,0,0.3,0.1,0.3,0.4c0,0.1,0,0.2,0,0.3c0,0.1,0,0.2,0,0.4c0,0.1,0.1,0.1,0.1,0.1c0.2,0.1,0.3,0.3,0.5,0.4
			c0.6,0.2,1.2,0,1.6-0.4c0.2-0.1,0.3-0.3,0.5-0.5c0.1-0.1,0.1-0.2,0.2-0.3c0.1-0.1,0.1-0.2,0.1-0.3c0-0.1,0-0.1,0-0.2
			c0-0.2,0.1-0.3,0.1-0.5c0.2-0.9,0.2-1.4,0.2-1.6C91.2,37.3,90.7,36.7,89.6,36.7z"/>
	</g>
</g>
</svg>
