<?xml version="1.0" encoding="utf-8"?>
<!-- Generator: Adobe Illustrator 21.0.1, SVG Export Plug-In . SVG Version: 6.00 Build 0)  -->
<svg version="1.1" id="Layer_1" xmlns="http://www.w3.org/2000/svg" xmlns:xlink="http://www.w3.org/1999/xlink" x="0px" y="0px"
	 viewBox="0 0 100 80" style="enable-background:new 0 0 100 80;" xml:space="preserve">
<style type="text/css">
	.st0{fill:#37B34A;}
</style>
<g>
	<path class="st0" d="M55.4,39.4c0,0,0.3,0.1,0.5,0c0.8-0.1,1.5-1,1.5-1.5c0-0.6-0.8-1-1.8-1s-1.8,0.4-1.8,1
		C53.9,38.4,54.6,39.3,55.4,39.4z"/>
	<path class="st0" d="M58.3,40.2c0-0.1,0-0.1-0.1-0.2c0,0-0.1-0.1-0.2-0.1c-0.1,0-0.1,0-0.2,0.1c0,0-0.1,0.1-0.1,0.2
		c0,0.2-0.4,0.4-0.9,0.4c-0.6,0-0.9-0.2-0.9-0.4v-0.6c-0.1,0-0.3,0.1-0.5,0v0.6c0,0.2-0.4,0.4-0.9,0.4c-0.6,0-0.9-0.2-0.9-0.4
		c0-0.1-0.1-0.3-0.3-0.3c-0.1,0-0.3,0.1-0.3,0.3c0,0.5,0.6,0.9,1.4,0.9c0.1,0,0.2,0,0.4,0c0.3,0,0.6-0.2,0.8-0.4
		c0.2,0.2,0.5,0.3,0.8,0.4c0.1,0,0.2,0,0.4,0C57.7,41.1,58.3,40.7,58.3,40.2z"/>
	<path class="st0" d="M37.3,39.3c0-0.6,0-1.1,0.2-1.7c0.2-0.5,0.4-1,0.8-1.5c0.4-0.5,0.8-0.8,1.4-1.1c0.5-0.3,1.1-0.4,1.7-0.5
		c0.6,0,1.2,0,1.7,0.2s1,0.4,1.5,0.8c0.4,0.3,0.7,0.7,1,1.1l2-1.6l0,0c-0.4-0.6-0.8-1-1.4-1.5c-0.7-0.6-1.5-1-2.4-1.2
		c-0.2-0.1-0.5-0.1-0.7-0.2c-0.6-1.5-1-3.5-1-3.5c-0.6,0.5-1.3,2.8-1.5,3.4c-0.7,0.1-1.4,0.4-2.1,0.7c-0.8,0.4-1.5,1-2,1.6
		c-0.5-0.2-3-1-3.7-0.8c0,0,1.6,1.7,2.4,3.1c0,0.1,0,0.1-0.1,0.2c-0.3,0.8-0.4,1.7-0.3,2.6c0.1,0.7,0.2,1.4,0.5,2.1l2.5-0.8
		C37.5,40.4,37.3,39.9,37.3,39.3z"/>
	<path class="st0" d="M42.6,37.6l-1.2,0.6l-1.2,0.6c-0.2,0.1-0.2,0.4,0,0.5l1.1,0.7l1.1,0.7c0.2,0.1,0.4,0,0.4-0.2l0.1-1.3l0.1-1.3
		C43,37.7,42.7,37.5,42.6,37.6z"/>
	<path class="st0" d="M45.7,36.8c0.1,0.3,0.2,0.5,0.3,0.8l2.4-1.1c-0.1-0.3-0.3-0.6-0.4-1c-0.1-0.2-0.2-0.3-0.3-0.5l0,0L45.7,36.8
		C45.6,36.8,45.7,36.8,45.7,36.8z"/>
	<path class="st0" d="M38.9,42.4c-0.1-0.1-0.3-0.2-0.4-0.4l-2.2,1.4c0.3,0.4,0.6,0.7,1,1c0.1,0.1,0.2,0.1,0.3,0.2l1.7-1.9
		C39.1,42.5,39,42.4,38.9,42.4z"/>
	<path class="st0" d="M37.8,41.1l-2.5,0.8c0.1,0.1,0.1,0.2,0.2,0.4c0.2,0.4,0.4,0.7,0.6,1l2.2-1.4C38.2,41.6,38,41.4,37.8,41.1z"/>
	<path class="st0" d="M54.8,41.2c0.1,0.3,0.9,1.8,1.7,0c-0.3,0-0.6-0.2-0.8-0.4C55.4,41.1,55.2,41.2,54.8,41.2z"/>
	<path class="st0" d="M97.6,40.2c-0.3-0.5-0.7-1.1-1.2-1.8c-0.4-0.4-0.6-0.8-0.8-1.1c-0.2-0.3-0.3-0.6-0.3-0.8
		c0-0.4,0.1-0.9,0.4-1.5c0.1-0.2,0.2-0.4,0.3-0.6c0.1-0.2,0.1-0.4,0.1-0.5c0-0.2-0.1-0.3-0.3-0.4c-0.2-0.1-0.5-0.1-1-0.1
		c-1,0-1.6,0.4-2,1.1c-0.5,1.1-0.9,2-1.2,2.7c-0.3,0.7-0.6,1.2-0.9,1.7c-0.5,0.7-1.1,1.6-2.1,2.8L88.5,42c-0.2,0.3-0.3,0.6-0.3,0.9
		c0,0.3,0.1,0.5,0.2,0.7c0.2,0.2,0.4,0.3,0.6,0.3c0.3,0,0.6-0.1,0.9-0.4c0.6-0.6,1.1-1.2,1.6-1.8s1-1.4,1.5-2.4
		c0.2,0.3,0.5,0.6,0.7,0.9c0.3,0.4,0.5,0.7,0.7,1.1c0.2,0.4,0.3,0.8,0.3,1.2c-0.1,0-0.4,0-0.7-0.1c-0.3,0-0.5-0.1-0.8-0.1
		c-0.6,0-1.1,0.2-1.4,0.5s-0.5,0.7-0.5,1.1c0,0.5,0.2,0.9,0.7,1.3c0.5,0.4,1.1,0.6,2,0.6c0.7,0,1.4-0.2,2-0.6c0.6-0.4,1-0.9,1.3-1.5
		s0.5-1.3,0.5-2C98,41.2,97.9,40.7,97.6,40.2z"/>
	<path class="st0" d="M62,36.3c-0.4-0.8-0.9-1.6-1.5-2.2c-0.1-0.1-0.2-0.2-0.3-0.3c0.1-0.5,0.2-1,0.2-1.5c-0.2-0.1-0.3-0.2-0.4-0.3
		c-0.1-0.1-0.2-0.2-0.3-0.3c-0.1-0.1-0.2-0.2-0.3-0.3c0.1,0.1,0.2,0.2,0.3,0.3L60,32c0.1,0.1,0.3,0.2,0.4,0.4c0.8,0.6,1.5,1,1.5,1
		c-0.1-1.5-2.2-3.5-2.2-3.5c-0.1,0-0.2,0.1-0.3,0.1c-0.4,0.3-0.7,0.7-0.8,0.7c-0.5,0.6-1,1.3-1.2,1.7c-0.6-0.2-1.2-0.3-1.9-0.3
		c-0.8,0-1.6,0.1-2.3,0.4c-0.2-0.4-1.5-2.4-2.4-2.7c0,0-1.1,1.8-0.3,4.4c-0.6,0.6-1.1,1.3-1.4,2.1c-0.2,0.4-0.3,0.9-0.4,1.3
		c-0.1-0.3-0.1-0.6-0.2-0.9l-2.4,1.1c0.1,0.2,0.1,0.4,0.1,0.7c0,0.1,0,0.2,0,0.4l2.3-0.3c0,0.1,0,0.2,0,0.2l-2.3,0.3
		c0,0.4-0.1,0.7-0.2,1.1c-0.2,0.5-0.4,1.1-0.8,1.5c-0.4,0.5-0.8,0.8-1.4,1.1c-0.5,0.3-1.1,0.5-1.7,0.5c-0.6,0-1.2,0-1.7-0.2
		c-0.3-0.1-0.7-0.3-1-0.4l-1.7,1.9c0.6,0.4,1.2,0.7,1.9,0.9c0.9,0.2,1.7,0.3,2.7,0.3c0.9-0.1,1.8-0.3,2.7-0.8c0.8-0.4,1.6-1,2.1-1.7
		c0.6-0.7,1-1.5,1.3-2.3c0.1-0.3,0.2-0.5,0.2-0.8c0.1,0.6,0.2,1.1,0.5,1.6c0.4,0.8,0.9,1.6,1.5,2.2c0.6,0.6,1.4,1.1,2.2,1.5
		c0.9,0.4,1.8,0.5,2.7,0.5c1,0,1.9-0.2,2.7-0.5c0.9-0.4,1.6-0.8,2.2-1.5c0.5-0.5,0.9-1.1,1.3-1.7c0.1-0.2,0.2-0.3,0.2-0.5
		c0.4-0.8,0.6-1.7,0.6-2.7c0-0.8-0.1-1.5-0.4-2.2C62.1,36.6,62.1,36.5,62,36.3z M59.6,37.2c-0.2-0.3-0.3-0.6-0.6-0.9
		C59.3,36.6,59.4,36.9,59.6,37.2z M57.3,35c0.5,0.2,0.9,0.5,1.2,0.8C58.1,35.4,57.7,35.2,57.3,35c-0.5-0.2-1.1-0.4-1.7-0.4
		c-0.2,0-0.4,0-0.5,0c0.2,0,0.4,0,0.5,0C56.2,34.6,56.7,34.7,57.3,35z M52.4,35.9c0.4-0.4,0.9-0.7,1.4-1c0.1-0.1,0.2-0.1,0.4-0.1
		c-0.1,0-0.2,0.1-0.4,0.1C53.3,35.2,52.8,35.5,52.4,35.9c-0.4,0.4-0.7,0.9-1,1.4C51.7,36.8,52,36.3,52.4,35.9z M51.1,39
		c0-0.4,0.1-0.8,0.2-1.2C51.1,38.3,51.1,38.6,51.1,39c0,0.2,0,0.4,0,0.6C51.1,39.4,51.1,39.2,51.1,39z M51.3,37.6L51.3,37.6
		C51.3,37.7,51.3,37.6,51.3,37.6z M51.1,39.8c0,0.1,0,0.1,0,0.2C51.2,40,51.1,39.9,51.1,39.8z M51.5,40.9c0.2,0.5,0.5,0.9,0.8,1.2
		C52,41.7,51.7,41.3,51.5,40.9z M53.2,42.8c0.2,0.1,0.4,0.2,0.6,0.3c0.1,0,0.2,0.1,0.3,0.1c-0.1,0-0.2-0.1-0.3-0.1
		C53.6,43,53.4,42.9,53.2,42.8z M53,42.7L53,42.7L53,42.7z M56.1,43.4L56.1,43.4c-0.1,0-0.3,0-0.6,0c-0.6,0-1.2-0.1-1.7-0.4
		c-0.5-0.2-1-0.6-1.4-1s-0.7-0.9-1-1.4c-0.2-0.5-0.3-1.1-0.3-1.7c0-0.6,0.1-1.2,0.3-1.7s0.6-1,1-1.4s0.9-0.7,1.4-1
		c0.3-0.1,0.7-0.2,1-0.3l0,0l0,0c0.2,0,0.4,0,0.7,0c0.6,0,1.2,0.1,1.7,0.4c0.5,0.2,1,0.6,1.4,1s0.7,0.9,1,1.4
		c0.2,0.5,0.3,1.1,0.3,1.7c0,0.6-0.1,1.2-0.3,1.7s-0.6,1-1,1.4s-0.9,0.7-1.4,1C56.9,43.2,56.5,43.3,56.1,43.4c0.4,0,0.6-0.1,0.8-0.2
		C56.7,43.3,56.4,43.3,56.1,43.4C56.2,43.4,56.2,43.4,56.1,43.4z M57.4,43.1c0.5-0.2,0.9-0.5,1.3-0.9c0.3-0.3,0.6-0.7,0.8-1.2
		c-0.2,0.4-0.5,0.8-0.8,1.2C58.3,42.5,57.9,42.8,57.4,43.1z"/>
</g>
<path class="st0" d="M31.9,34c-0.6,0-1.2,0.2-1.9,0.6c-0.7,0.4-1.4,1-2.1,2c-0.7,0.9-1.3,2.1-1.9,3.6c0.1-0.7,0.2-1.4,0.3-1.9
	c0.1-0.5,0.2-1.1,0.4-1.8c0.3-1,0.4-1.6,0.4-1.8s-0.1-0.4-0.2-0.5C26.8,34,26.6,34,26.2,34c-0.6,0-1.1,0.1-1.5,0.3
	c-0.3,0.2-0.6,0.6-0.8,1.1c-0.5,1.7-0.8,3.5-0.9,5.3c-1,0.7-2.1,1.5-3.3,2.3l0.3-1.9c0.3-1.9,0.5-3.2,0.5-3.7c0.1-0.5,0-0.8-0.3-1.1
	c-0.2-0.2-0.6-0.4-0.9-0.4h-4.8c-0.4,0-0.8,0.1-1,0.4c-0.3,0.3-0.4,0.6-0.4,1.1s0.1,0.9,0.4,1.1c0.3,0.2,0.6,0.3,1.1,0.3h2.6
	l-0.4,3.1c-1.3,0.5-2.5,0.8-3.7,0.8c-2.1,0-3.7-0.6-4.8-1.7c-1.1-1.1-1.7-2.7-1.7-4.7s0.3-3.7,1-5.1c0.6-1.4,1.5-2.5,2.6-3.2
	s2.2-1.1,3.5-1.1c1,0,1.7,0.2,2.2,0.6c0.4,0.4,0.7,0.9,0.7,1.7c0,0.3-0.1,0.6-0.2,1.1c-0.1,0.4-0.1,0.7-0.1,0.9
	c0,0.4,0.1,0.7,0.4,0.9c0.3,0.2,0.7,0.3,1.1,0.3c0.7,0,1.2-0.3,1.6-0.9s0.5-1.4,0.5-2.4c0-1.5-0.5-2.8-1.5-3.7
	c-1-0.9-2.5-1.4-4.5-1.4c-2.1,0-4,0.5-5.6,1.6c-1.7,1.1-3,2.6-3.9,4.5c-0.6,1.2-1,2.6-1.2,4.1C3.1,35.2,3,36.1,3,37
	c0,1.2,0.2,2.3,0.5,3.3c0.2,0.5,0.4,1,0.7,1.5l0,0c0.4,0.7,0.9,1.3,1.4,1.8c0.6,0.5,1.2,1,2,1.4c1.4,0.7,3.1,1.1,5,1.1
	c1.3,0,2.6-0.3,4-0.8l-0.1,0.5c-1.8,1.4-3.2,2.6-4.1,3.7c-1,1.1-1.6,2-2,2.8C10,53,9.8,53.8,9.8,54.6c0,0.9,0.3,1.6,0.8,2.1
	s1.3,0.8,2.1,0.8c1.6,0,3-1,4-3c1.1-2,1.9-4.8,2.6-8.3c1.6-1.1,2.9-2,3.8-2.6c0.1,0.6,0.2,1.1,0.3,1.5c0.3,0.7,0.7,1,1.4,1
	c0.5,0,0.9-0.1,1.2-0.4c0.2-0.3,0.5-0.8,0.7-1.6c0.3-1,0.6-2,1-3c0.4-0.9,0.8-1.7,1.2-2.3c0.4-0.6,0.8-0.9,1-0.9s0.3,0.1,0.3,0.4
	c0,0.1,0,0.2,0,0.3s0,0.2,0,0.4c0,0.1,0.1,0.1,0.1,0.1c0.2,0.1,0.3,0.3,0.5,0.4c0.6,0.2,1.2,0,1.6-0.4c0.2-0.1,0.3-0.3,0.5-0.5
	c0.1-0.1,0.1-0.2,0.2-0.3c0.1-0.1,0.1-0.2,0.1-0.3c0-0.2,0.1-0.5,0.1-0.7c0.2-0.9,0.2-1.4,0.2-1.6C33.6,34.5,33,34,31.9,34z
	 M14.5,53.5c-0.5,1-1,1.5-1.5,1.5s-0.7-0.3-0.7-1s0.3-1.5,0.9-2.4c0.6-0.9,1.5-1.9,2.8-3C15.5,50.9,15,52.5,14.5,53.5z"/>
<g>
	<path class="st0" d="M84.4,38c-0.2,0.4-0.4,0.9-0.6,1.3c0,0,0,0,0,0.1C84,38.9,84.2,38.4,84.4,38z"/>
	<path class="st0" d="M89.6,33.2c-0.6,0-1.2,0.2-1.9,0.6c-0.7,0.4-1.4,1-2.1,2c-0.5,0.6-0.9,1.3-1.3,2.2c-0.2,0.4-0.4,0.9-0.6,1.4
		c0,0,0,0,0-0.1c0,0.1-0.1,0.2-0.1,0.3c0.1-0.7,0.1-1.3,0.2-1.8s0.2-1.1,0.4-1.7c0.2-0.9,0.4-1.5,0.4-1.8c0-0.2-0.1-0.4-0.2-0.5
		s-0.4-0.1-0.7-0.1c-0.6,0-1.1,0.1-1.4,0.3s-0.6,0.6-0.7,1.1c-0.5,1.6-0.8,3.4-0.9,5.2c0,0.2,0,0.3,0,0.5c-0.5,0.6-0.9,1-1.2,1.3
		c-0.5,0.4-0.8,0.6-1.2,0.6c-0.5,0-0.7-0.3-0.7-1c0-0.5,0.2-1.4,0.5-2.8c0.4-1.7,0.5-2.8,0.5-3.5c0-1.1-0.5-1.6-1.6-1.6
		c-0.9,0-1.8,0.5-2.8,1.4s-1.9,2.4-2.7,4.4c0-0.3,0.1-0.7,0.3-1.3c0.3-1.4,0.5-2.3,0.5-2.9c0-0.5-0.1-0.9-0.4-1.2
		c-0.2-0.3-0.6-0.4-1.2-0.4s-1.2,0.2-1.8,0.7c-0.7,0.4-1.3,1.1-1.9,2s-1.1,2-1.6,3.3c0.1-0.7,0.1-1.3,0.2-1.8s0.2-1.1,0.4-1.7
		c0.2-0.9,0.4-1.5,0.4-1.8c0-0.2-0.1-0.4-0.2-0.5s-0.4-0.1-0.7-0.1c-0.6,0-1.1,0.1-1.4,0.3c-0.3,0.2-0.6,0.6-0.7,1.1
		c-0.2,0.6-0.3,1.2-0.5,1.8c0.3,0.7,0.4,1.5,0.4,2.2c0,1-0.2,1.8-0.6,2.7c-0.1,0.2-0.2,0.3-0.2,0.5c0.1,0.9,0.2,1.6,0.4,2.1
		c0.3,0.7,0.7,1,1.3,1c0.5,0,0.9-0.1,1.1-0.4c0.2-0.3,0.4-0.8,0.6-1.6c0.2-0.9,0.5-1.8,0.9-2.7s0.7-1.7,1.1-2.3s0.7-0.9,0.9-0.9
		c0.2,0,0.3,0.1,0.3,0.4c0,0.3-0.1,1-0.2,2.1c-0.2,1.2-0.2,2.1-0.2,2.7c0,0.7,0.1,1.4,0.4,1.9s0.7,0.8,1.2,0.8s0.9-0.1,1.1-0.4
		c0.2-0.3,0.4-0.8,0.6-1.6c0.2-1,0.6-2,1-2.9s0.8-1.6,1.2-2.2c0.4-0.6,0.7-0.8,0.9-0.8c0.2,0,0.3,0.1,0.3,0.4c0,0.4-0.1,1.1-0.3,2.1
		c-0.2,1.2-0.3,2-0.3,2.5c0,0.9,0.2,1.6,0.6,2.1s1.1,0.7,1.9,0.7c1,0,2-0.3,2.8-0.8c0.3-0.2,0.7-0.5,1-0.8c0.1,0.2,0.1,0.5,0.2,0.6
		c0.3,0.7,0.7,1,1.3,1l0,0l0,0c0.5,0,0.9-0.1,1.1-0.4c0.2-0.3,0.4-0.8,0.6-1.6c0.2-1,0.6-2,1-2.9s0.8-1.6,1.2-2.2
		c0.1-0.2,0.3-0.3,0.4-0.5c0.3-0.4,0.6-0.6,0.8-0.6c0.2,0,0.3,0.1,0.3,0.4c0,0.1,0,0.2,0,0.3s0,0.2,0,0.4c0,0.1,0.1,0.1,0.1,0.1
		c0.2,0.1,0.3,0.3,0.5,0.4c0.6,0.2,1.2,0,1.6-0.4c0.2-0.1,0.3-0.3,0.5-0.5c0.1-0.1,0.1-0.2,0.2-0.3s0.1-0.2,0.1-0.3s0-0.1,0-0.2
		c0-0.2,0.1-0.3,0.1-0.5c0.2-0.9,0.2-1.4,0.2-1.6C91.2,33.8,90.7,33.2,89.6,33.2z"/>
</g>
</svg>
